<svg version="1.1" id="Layer_1" xmlns="http://www.w3.org/2000/svg" xmlns:xlink="http://www.w3.org/1999/xlink" x="0px" y="0px"
	 width="100%" viewBox="0 0 163 163" enable-background="new 0 0 163 163" xml:space="preserve">
<path fill="#FEFFFE" opacity="000000" stroke="none" 
	d="
M164.000000,58.000000 
	C164.000000,93.666664 164.000000,128.833328 164.000000,164.000000 
	C109.666664,164.000000 55.333332,164.000000 1.000000,164.000000 
	C1.000000,109.666664 1.000000,55.333332 1.000000,1.000000 
	C55.333332,1.000000 109.666664,1.000000 164.000000,1.000000 
	C164.000000,19.833334 164.000000,38.666668 164.000000,58.000000 
M7.130185,99.226006 
	C7.368483,100.023483 7.642176,100.812279 7.839991,101.619675 
	C16.958626,138.837799 53.086197,165.973328 96.459213,159.288467 
	C133.303131,153.609894 162.878815,119.451614 161.324158,79.109940 
	C159.771729,38.826561 124.212112,-3.671536 69.605812,5.752943 
	C25.460157,13.372022 -1.098011,53.988335 7.130185,99.226006 
z"/>
<path fill="#4EC0B9" opacity="1.000000" stroke="none" 
	d="
M7.059896,98.803001 
	C-1.098011,53.988335 25.460157,13.372022 69.605812,5.752943 
	C124.212112,-3.671536 159.771729,38.826561 161.324158,79.109940 
	C162.878815,119.451614 133.303131,153.609894 96.459213,159.288467 
	C53.086197,165.973328 16.958626,138.837799 7.839991,101.619675 
	C7.642176,100.812279 7.368483,100.023483 7.059896,98.803001 
M48.669693,143.519272 
	C51.240768,144.741928 53.811840,145.964569 57.017223,147.488861 
	C54.683701,139.796509 55.478455,136.498749 59.433754,135.028641 
	C63.111420,133.661713 67.350967,135.362366 68.662445,138.730621 
	C70.271271,142.862534 68.165504,146.209595 61.594620,149.002258 
	C70.961548,151.913589 79.689423,153.381363 89.174309,151.872528 
	C88.881729,149.638641 88.656937,147.922348 88.432144,146.206039 
	C88.184845,146.685501 87.937553,147.164963 87.690254,147.644424 
	C84.283379,147.143661 80.442360,147.410782 77.646179,145.829865 
	C76.168236,144.994247 75.225845,139.908188 76.307381,138.563721 
	C78.313553,136.069824 81.981689,134.912872 86.229477,132.466919 
	C85.626205,127.789612 84.832680,121.222481 83.866341,114.680870 
	C83.748337,113.882072 82.783905,113.126595 82.073204,112.510956 
	C78.653168,109.548424 78.032486,106.175003 80.464478,102.321480 
	C82.494698,99.104568 82.589691,97.143707 78.076134,95.858109 
	C75.934624,95.248131 73.281227,92.371582 73.041916,90.273010 
	C72.795280,88.110359 75.042892,85.537140 76.520279,83.361610 
	C77.177498,82.393822 79.193481,82.211571 79.617790,81.244850 
	C82.590652,74.471710 85.308662,67.586716 88.273346,60.333485 
	C81.237823,62.194191 77.661385,61.230778 76.338585,57.241287 
	C75.227791,53.891193 75.990082,50.849964 79.233681,49.090908 
	C80.589127,48.355824 82.776215,47.706909 83.907135,48.303707 
	C86.329811,49.582172 88.311234,51.696796 90.877495,53.800255 
	C91.959099,51.277328 93.152428,48.493774 94.343323,45.715908 
	C86.828064,42.313156 84.650467,39.067390 86.772652,34.868462 
	C88.993851,30.473595 92.460701,30.051687 99.572075,33.390686 
	C100.378754,31.407339 101.182266,29.431753 101.950432,27.543085 
	C96.975105,22.031416 96.835678,20.896061 100.488678,13.806189 
	C96.512939,13.468991 92.771362,13.151653 89.029785,12.834316 
	C92.625809,15.460417 94.343513,18.692041 92.763733,22.209352 
	C91.819275,24.312138 88.767670,26.652782 86.617752,26.697439 
	C84.459366,26.742273 81.201149,24.539967 80.277184,22.488310 
	C78.493950,18.528618 80.457420,15.125928 84.835648,13.351077 
	C84.684685,12.894742 84.533714,12.438406 84.382751,11.982071 
	C79.575821,12.394997 74.768883,12.807922 69.011780,13.302470 
	C72.885880,16.732302 74.633369,20.227219 71.945496,23.614487 
	C70.495117,25.442255 67.088257,26.967281 64.835213,26.657434 
	C59.566898,25.932919 59.159657,21.260370 58.600063,16.289625 
	C56.015511,18.075180 54.380871,20.432976 52.300751,22.292419 
	C50.250057,24.125551 47.452381,27.048965 45.503159,26.687332 
	C40.769943,25.809193 38.493137,28.163719 35.754459,31.196930 
	C38.348858,34.606949 40.334503,38.215897 36.951904,41.977974 
	C33.662643,45.636250 29.837299,44.403053 25.933359,42.192150 
	C24.814493,44.018570 23.807631,45.662151 22.651312,47.549702 
	C27.254944,49.535294 29.505640,52.687855 27.883327,57.234035 
	C25.996714,62.520847 21.540327,62.099140 16.074711,60.681015 
	C16.390455,63.272873 16.132671,65.460274 16.962957,67.095039 
	C18.809128,70.729996 18.373104,73.605515 15.738673,76.646111 
	C14.419662,78.168488 13.846331,80.336937 12.664179,82.772736 
	C20.555180,81.825279 24.196352,83.538475 24.706728,88.043480 
	C24.879742,89.570648 24.603285,91.891754 23.610731,92.660927 
	C21.173353,94.549736 18.200125,95.747070 14.922968,97.500504 
	C15.439826,99.641068 16.115292,102.438499 17.025915,106.209839 
	C19.225910,101.053398 22.207903,99.002747 26.588507,100.388100 
	C30.049019,101.482475 31.781815,104.396072 30.894083,107.825668 
	C30.383959,109.796440 28.620775,111.959793 26.824015,112.932549 
	C25.090845,113.870888 22.589624,113.390579 19.884956,113.569229 
	C22.399242,117.528168 24.725861,121.191612 27.540092,125.622841 
	C28.411766,120.253777 30.444214,116.591103 34.977425,117.296684 
	C37.456375,117.682533 40.149002,120.493973 41.482189,122.908890 
	C42.194550,124.199242 40.717594,127.421562 39.323959,128.943497 
	C37.986927,130.403610 35.481030,130.793411 32.359337,132.141205 
	C35.025799,133.227051 36.892719,134.709625 38.625298,134.566452 
	C45.719345,133.980225 47.772011,135.552322 48.669693,143.519272 
M114.119926,66.631332 
	C125.193993,62.298267 136.268066,57.965199 147.698349,53.492748 
	C140.243622,37.690548 129.185883,26.556547 113.757195,18.758221 
	C106.000069,37.598923 98.404457,56.047325 90.210457,75.949120 
	C98.953384,72.543449 106.175629,69.730141 114.119926,66.631332 
M90.618805,84.213593 
	C89.547318,85.203125 88.475830,86.192657 87.404335,87.182182 
	C88.525520,88.223740 89.471672,89.778107 90.794273,90.229546 
	C109.193909,96.509750 127.642853,102.645615 146.091934,108.780144 
	C146.817963,109.021553 147.665207,108.898399 148.682190,108.958473 
	C149.248184,107.261314 149.748657,105.760628 150.387390,103.845383 
	C130.442139,97.242500 110.906891,90.775360 90.618805,84.213593 
M132.987122,118.542641 
	C134.403641,119.018105 135.894455,119.342781 137.222809,119.997215 
	C141.258240,121.985344 143.735321,121.052200 144.589630,116.298492 
	C126.487915,110.200203 108.471748,104.130722 90.185883,97.970390 
	C89.336525,102.263069 90.266556,104.520966 94.403030,105.802750 
	C107.085609,109.732750 119.643196,114.066116 132.987122,118.542641 
M103.787903,80.033112 
	C119.875946,85.544174 135.963989,91.055244 152.024200,96.556778 
	C153.929123,92.230492 153.079666,90.296524 149.272400,89.104141 
	C138.327469,85.676308 127.407784,82.133850 116.634392,78.207764 
	C111.813988,76.451088 107.620857,76.680130 103.787903,80.033112 
M135.996857,128.546356 
	C134.851105,127.945770 133.761276,127.180161 132.550964,126.770172 
	C120.591499,122.718857 108.615486,118.716225 96.633537,114.731766 
	C95.290565,114.285179 93.881882,114.036163 92.472717,113.687866 
	C91.075272,118.014122 92.789543,119.834526 96.450096,120.979668 
	C107.221748,124.349396 117.955490,127.851753 128.621368,131.541260 
	C131.835510,132.653076 134.077316,132.261948 135.996857,128.546356 
M113.731018,134.801132 
	C107.381554,132.676773 101.032082,130.552414 94.553574,128.384872 
	C93.463783,133.026886 94.869720,135.054993 98.678230,136.099579 
	C104.269913,137.633240 109.844856,139.355118 115.218376,141.515533 
	C119.293800,143.154053 122.075485,142.080368 125.028580,138.612030 
	C121.271904,137.327072 117.882629,136.167786 113.731018,134.801132 
M144.966476,79.539291 
	C147.720093,80.426277 150.473694,81.313271 153.245499,82.206108 
	C154.727478,77.911118 153.703354,75.792976 149.673248,74.767212 
	C145.185257,73.624908 140.749695,72.113480 136.482574,70.310165 
	C131.767670,68.317627 127.537590,68.772163 122.628090,72.045525 
	C130.187485,74.563515 137.210342,76.902779 144.966476,79.539291 
M102.524254,150.153809 
	C104.510406,149.517075 106.496559,148.880356 109.813492,147.817017 
	C104.481133,146.006699 100.563248,144.676605 95.869560,143.083115 
	C96.479866,146.313416 96.921143,148.649033 97.411880,151.246460 
	C99.192635,150.890167 100.473892,150.633804 102.524254,150.153809 
M148.866882,61.556759 
	C146.776428,62.368683 144.685989,63.180607 141.607269,64.376373 
	C145.598679,65.607918 148.466446,66.492760 151.334198,67.377602 
	C151.650452,67.059540 151.966705,66.741486 152.282959,66.423424 
	C151.376022,64.728363 150.469086,63.033298 148.866882,61.556759 
M88.703369,58.568485 
	C88.989105,58.295719 89.274841,58.022953 89.560577,57.750187 
	C89.447472,57.631950 89.242271,57.404686 89.234543,57.411205 
	C88.933197,57.665752 88.649841,57.941605 88.703369,58.568485 
M59.590961,147.517456 
	C59.590961,147.517456 59.476727,147.586273 59.590961,147.517456 
z"/>
<path fill="#FAFDFD" opacity="1.000000" stroke="none" 
	d="
M48.462418,143.189514 
	C47.772011,135.552322 45.719345,133.980225 38.625298,134.566452 
	C36.892719,134.709625 35.025799,133.227051 32.359337,132.141205 
	C35.481030,130.793411 37.986927,130.403610 39.323959,128.943497 
	C40.717594,127.421562 42.194550,124.199242 41.482189,122.908890 
	C40.149002,120.493973 37.456375,117.682533 34.977425,117.296684 
	C30.444214,116.591103 28.411766,120.253777 27.540092,125.622841 
	C24.725861,121.191612 22.399242,117.528168 19.884956,113.569229 
	C22.589624,113.390579 25.090845,113.870888 26.824015,112.932549 
	C28.620775,111.959793 30.383959,109.796440 30.894083,107.825668 
	C31.781815,104.396072 30.049019,101.482475 26.588507,100.388100 
	C22.207903,99.002747 19.225910,101.053398 17.025915,106.209839 
	C16.115292,102.438499 15.439826,99.641068 14.922968,97.500504 
	C18.200125,95.747070 21.173353,94.549736 23.610731,92.660927 
	C24.603285,91.891754 24.879742,89.570648 24.706728,88.043480 
	C24.196352,83.538475 20.555180,81.825279 12.664179,82.772736 
	C13.846331,80.336937 14.419662,78.168488 15.738673,76.646111 
	C18.373104,73.605515 18.809128,70.729996 16.962957,67.095039 
	C16.132671,65.460274 16.390455,63.272873 16.074711,60.681015 
	C21.540327,62.099140 25.996714,62.520847 27.883327,57.234035 
	C29.505640,52.687855 27.254944,49.535294 22.651312,47.549702 
	C23.807631,45.662151 24.814493,44.018570 25.933359,42.192150 
	C29.837299,44.403053 33.662643,45.636250 36.951904,41.977974 
	C40.334503,38.215897 38.348858,34.606949 35.754459,31.196930 
	C38.493137,28.163719 40.769943,25.809193 45.503159,26.687332 
	C47.452381,27.048965 50.250057,24.125551 52.300751,22.292419 
	C54.380871,20.432976 56.015511,18.075180 58.600063,16.289625 
	C59.159657,21.260370 59.566898,25.932919 64.835213,26.657434 
	C67.088257,26.967281 70.495117,25.442255 71.945496,23.614487 
	C74.633369,20.227219 72.885880,16.732302 69.011780,13.302470 
	C74.768883,12.807922 79.575821,12.394997 84.382751,11.982071 
	C84.533714,12.438406 84.684685,12.894742 84.835648,13.351077 
	C80.457420,15.125928 78.493950,18.528618 80.277184,22.488310 
	C81.201149,24.539967 84.459366,26.742273 86.617752,26.697439 
	C88.767670,26.652782 91.819275,24.312138 92.763733,22.209352 
	C94.343513,18.692041 92.625809,15.460417 89.029785,12.834316 
	C92.771362,13.151653 96.512939,13.468991 100.488678,13.806189 
	C96.835678,20.896061 96.975105,22.031416 101.950432,27.543085 
	C101.182266,29.431753 100.378754,31.407339 99.572075,33.390686 
	C92.460701,30.051687 88.993851,30.473595 86.772652,34.868462 
	C84.650467,39.067390 86.828064,42.313156 94.343323,45.715908 
	C93.152428,48.493774 91.959099,51.277328 90.877495,53.800255 
	C88.311234,51.696796 86.329811,49.582172 83.907135,48.303707 
	C82.776215,47.706909 80.589127,48.355824 79.233681,49.090908 
	C75.990082,50.849964 75.227791,53.891193 76.338585,57.241287 
	C77.661385,61.230778 81.237823,62.194191 88.273346,60.333485 
	C85.308662,67.586716 82.590652,74.471710 79.617790,81.244850 
	C79.193481,82.211571 77.177498,82.393822 76.520279,83.361610 
	C75.042892,85.537140 72.795280,88.110359 73.041916,90.273010 
	C73.281227,92.371582 75.934624,95.248131 78.076134,95.858109 
	C82.589691,97.143707 82.494698,99.104568 80.464478,102.321480 
	C78.032486,106.175003 78.653168,109.548424 82.073204,112.510956 
	C82.783905,113.126595 83.748337,113.882072 83.866341,114.680870 
	C84.832680,121.222481 85.626205,127.789612 86.229477,132.466919 
	C81.981689,134.912872 78.313553,136.069824 76.307381,138.563721 
	C75.225845,139.908188 76.168236,144.994247 77.646179,145.829865 
	C80.442360,147.410782 84.283379,147.143661 87.690254,147.644424 
	C87.937553,147.164963 88.184845,146.685501 88.432144,146.206039 
	C88.656937,147.922348 88.881729,149.638641 89.174309,151.872528 
	C79.689423,153.381363 70.961548,151.913589 61.594620,149.002258 
	C68.165504,146.209595 70.271271,142.862534 68.662445,138.730621 
	C67.350967,135.362366 63.111420,133.661713 59.433754,135.028641 
	C55.478455,136.498749 54.683701,139.796509 57.017223,147.488861 
	C53.811840,145.964569 51.240768,144.741928 48.462418,143.189514 
M31.084421,65.298599 
	C25.272974,65.658882 22.454565,68.255234 22.899773,72.838394 
	C23.280306,76.755814 26.717056,79.972321 30.423153,78.772964 
	C32.820839,77.997047 35.518166,75.541557 36.373100,73.211861 
	C37.669586,69.678909 35.245880,66.982368 31.084421,65.298599 
M43.480034,70.155823 
	C43.097168,75.339981 45.071445,78.510796 49.131592,78.960251 
	C52.931702,79.380920 55.668583,77.694504 56.729378,74.047028 
	C57.722820,70.631126 56.474617,67.738861 53.273373,66.115585 
	C49.078598,63.988506 45.966972,65.556564 43.480034,70.155823 
M65.468437,48.795578 
	C59.136490,47.105381 53.843273,50.679630 55.607788,55.827660 
	C56.418438,58.192753 59.134575,60.978405 61.418358,61.440731 
	C63.409573,61.843830 66.776161,59.799309 68.158333,57.856709 
	C70.288826,54.862350 69.110741,51.554703 65.468437,48.795578 
M64.401016,69.320930 
	C63.237698,73.058296 63.734436,76.729149 67.597260,77.987793 
	C69.916847,78.743607 73.884125,78.229813 75.386528,76.648399 
	C76.909424,75.045410 77.308296,71.041435 76.433258,68.769257 
	C74.576645,63.948265 69.251335,64.114212 64.401016,69.320930 
M56.513470,83.014969 
	C52.466007,85.052002 51.011044,88.172073 52.996479,92.366524 
	C54.680984,95.925209 57.803677,96.804039 61.314449,95.601349 
	C64.710991,94.437790 66.373192,91.572517 65.641731,88.191566 
	C64.721115,83.936264 61.825340,81.794846 56.513470,83.014969 
M38.023823,106.502182 
	C38.401581,110.244812 40.256943,113.215187 44.090313,113.164368 
	C46.343933,113.134499 49.224354,111.636009 50.663727,109.859123 
	C53.088810,106.865402 51.429550,102.296196 48.010685,100.609436 
	C43.912041,98.587273 40.339481,100.429153 38.023823,106.502182 
M51.943485,118.329132 
	C48.344467,121.183640 47.741680,124.744461 50.502720,128.243118 
	C52.754211,131.096085 56.057217,131.803772 59.325645,129.638763 
	C62.509239,127.529953 63.447071,124.404343 61.738422,121.039619 
	C59.827026,117.275635 56.660210,116.078194 51.943485,118.329132 
M70.465057,127.907318 
	C72.962074,128.783340 75.548141,130.562836 77.935623,130.327530 
	C81.688248,129.957657 83.872337,125.279526 82.703270,121.842232 
	C81.538292,118.416977 77.620956,116.280624 74.332825,117.277382 
	C70.089378,118.563698 68.538658,122.195618 70.465057,127.907318 
M62.630775,112.880974 
	C66.020325,114.351868 69.242264,113.604904 70.829742,110.536438 
	C71.881142,108.504150 72.244637,104.915878 71.109360,103.271721 
	C69.836693,101.428581 66.519775,100.193359 64.106125,100.215263 
	C62.407345,100.230659 60.002857,102.467552 59.207432,104.280312 
	C57.833851,107.410667 58.961964,110.455696 62.630775,112.880974 
M51.588554,30.837666 
	C46.630512,32.231316 44.459965,34.900532 45.348270,38.705246 
	C46.226646,42.467426 48.684616,44.386349 52.557701,44.145550 
	C56.239143,43.916664 58.543446,41.652298 58.805630,38.168423 
	C59.126129,33.909706 56.744854,31.347097 51.588554,30.837666 
M45.131256,60.633175 
	C48.885929,57.854794 49.399796,54.252003 46.851120,50.657291 
	C44.838596,47.818790 41.693653,47.094158 38.440147,48.913006 
	C35.000862,50.835697 34.009857,53.969288 35.454659,57.406269 
	C37.112606,61.350277 40.312111,62.610661 45.131256,60.633175 
M73.307770,44.145023 
	C75.217392,42.377975 77.952469,40.948681 78.845657,38.765743 
	C80.230148,35.382050 77.467422,31.703651 73.960831,30.967951 
	C70.222862,30.183704 66.809410,32.246490 65.966362,35.799091 
	C64.919258,40.211571 67.135872,43.072945 73.307770,44.145023 
M44.633312,91.780533 
	C45.770367,87.942482 44.922642,84.722130 41.043583,83.213058 
	C37.672871,81.901733 34.322521,82.496605 32.559975,86.056274 
	C30.949114,89.309593 31.192768,92.695480 34.540768,94.788872 
	C38.338955,97.163765 41.765461,96.401360 44.633312,91.780533 
z"/>
<path fill="#FDFEFE" opacity="1.000000" stroke="none" 
	d="
M113.758896,66.774078 
	C106.175629,69.730141 98.953384,72.543449 90.210457,75.949120 
	C98.404457,56.047325 106.000069,37.598923 113.757195,18.758221 
	C129.185883,26.556547 140.243622,37.690548 147.698349,53.492748 
	C136.268066,57.965199 125.193993,62.298267 113.758896,66.774078 
z"/>
<path fill="#F6FCFB" opacity="1.000000" stroke="none" 
	d="
M90.995224,84.260910 
	C110.906891,90.775360 130.442139,97.242500 150.387390,103.845383 
	C149.748657,105.760628 149.248184,107.261314 148.682190,108.958473 
	C147.665207,108.898399 146.817963,109.021553 146.091934,108.780144 
	C127.642853,102.645615 109.193909,96.509750 90.794273,90.229546 
	C89.471672,89.778107 88.525520,88.223740 87.404335,87.182182 
	C88.475830,86.192657 89.547318,85.203125 90.995224,84.260910 
z"/>
<path fill="#F7FCFC" opacity="1.000000" stroke="none" 
	d="
M132.618256,118.392639 
	C119.643196,114.066116 107.085609,109.732750 94.403030,105.802750 
	C90.266556,104.520966 89.336525,102.263069 90.185883,97.970390 
	C108.471748,104.130722 126.487915,110.200203 144.589630,116.298492 
	C143.735321,121.052200 141.258240,121.985344 137.222809,119.997215 
	C135.894455,119.342781 134.403641,119.018105 132.618256,118.392639 
z"/>
<path fill="#F7FCFC" opacity="1.000000" stroke="none" 
	d="
M103.609314,79.723785 
	C107.620857,76.680130 111.813988,76.451088 116.634392,78.207764 
	C127.407784,82.133850 138.327469,85.676308 149.272400,89.104141 
	C153.079666,90.296524 153.929123,92.230492 152.024200,96.556778 
	C135.963989,91.055244 119.875946,85.544174 103.609314,79.723785 
z"/>
<path fill="#F7FCFC" opacity="1.000000" stroke="none" 
	d="
M135.878281,128.917786 
	C134.077316,132.261948 131.835510,132.653076 128.621368,131.541260 
	C117.955490,127.851753 107.221748,124.349396 96.450096,120.979668 
	C92.789543,119.834526 91.075272,118.014122 92.472717,113.687866 
	C93.881882,114.036163 95.290565,114.285179 96.633537,114.731766 
	C108.615486,118.716225 120.591499,122.718857 132.550964,126.770172 
	C133.761276,127.180161 134.851105,127.945770 135.878281,128.917786 
z"/>
<path fill="#F4FBFB" opacity="1.000000" stroke="none" 
	d="
M114.112190,134.904816 
	C117.882629,136.167786 121.271904,137.327072 125.028580,138.612030 
	C122.075485,142.080368 119.293800,143.154053 115.218376,141.515533 
	C109.844856,139.355118 104.269913,137.633240 98.678230,136.099579 
	C94.869720,135.054993 93.463783,133.026886 94.553574,128.384872 
	C101.032082,130.552414 107.381554,132.676773 114.112190,134.904816 
z"/>
<path fill="#F6FCFB" opacity="1.000000" stroke="none" 
	d="
M144.599838,79.390671 
	C137.210342,76.902779 130.187485,74.563515 122.628090,72.045525 
	C127.537590,68.772163 131.767670,68.317627 136.482574,70.310165 
	C140.749695,72.113480 145.185257,73.624908 149.673248,74.767212 
	C153.703354,75.792976 154.727478,77.911118 153.245499,82.206108 
	C150.473694,81.313271 147.720093,80.426277 144.599838,79.390671 
z"/>
<path fill="#EFF9F9" opacity="1.000000" stroke="none" 
	d="
M102.139709,150.265625 
	C100.473892,150.633804 99.192635,150.890167 97.411880,151.246460 
	C96.921143,148.649033 96.479866,146.313416 95.869560,143.083115 
	C100.563248,144.676605 104.481133,146.006699 109.813492,147.817017 
	C106.496559,148.880356 104.510406,149.517075 102.139709,150.265625 
z"/>
<path fill="#EFF9F9" opacity="1.000000" stroke="none" 
	d="
M149.214523,61.447502 
	C150.469086,63.033298 151.376022,64.728363 152.282959,66.423424 
	C151.966705,66.741486 151.650452,67.059540 151.334198,67.377602 
	C148.466446,66.492760 145.598679,65.607918 141.607269,64.376373 
	C144.685989,63.180607 146.776428,62.368683 149.214523,61.447502 
z"/>
<path fill="#4FC0B9" opacity="1.000000" stroke="none" 
	d="
M88.533752,58.391575 
	C88.649841,57.941605 88.933197,57.665752 89.234543,57.411205 
	C89.242271,57.404686 89.447472,57.631950 89.560577,57.750187 
	C89.274841,58.022953 88.989105,58.295719 88.533752,58.391575 
z"/>
<path fill="#50C0BA" opacity="1.000000" stroke="none" 
	d="
M59.533844,147.551865 
	C59.476727,147.586273 59.590961,147.517456 59.533844,147.551865 
z"/>
<path fill="#51C1BA" opacity="1.000000" stroke="none" 
	d="
M31.443459,65.418076 
	C35.245880,66.982368 37.669586,69.678909 36.373100,73.211861 
	C35.518166,75.541557 32.820839,77.997047 30.423153,78.772964 
	C26.717056,79.972321 23.280306,76.755814 22.899773,72.838394 
	C22.454565,68.255234 25.272974,65.658882 31.443459,65.418076 
z"/>
<path fill="#51C1BA" opacity="1.000000" stroke="none" 
	d="
M43.633972,69.809128 
	C45.966972,65.556564 49.078598,63.988506 53.273373,66.115585 
	C56.474617,67.738861 57.722820,70.631126 56.729378,74.047028 
	C55.668583,77.694504 52.931702,79.380920 49.131592,78.960251 
	C45.071445,78.510796 43.097168,75.339981 43.633972,69.809128 
z"/>
<path fill="#50C0BA" opacity="1.000000" stroke="none" 
	d="
M65.818886,48.976585 
	C69.110741,51.554703 70.288826,54.862350 68.158333,57.856709 
	C66.776161,59.799309 63.409573,61.843830 61.418358,61.440731 
	C59.134575,60.978405 56.418438,58.192753 55.607788,55.827660 
	C53.843273,50.679630 59.136490,47.105381 65.818886,48.976585 
z"/>
<path fill="#51C1BA" opacity="1.000000" stroke="none" 
	d="
M64.613785,68.986725 
	C69.251335,64.114212 74.576645,63.948265 76.433258,68.769257 
	C77.308296,71.041435 76.909424,75.045410 75.386528,76.648399 
	C73.884125,78.229813 69.916847,78.743607 67.597260,77.987793 
	C63.734436,76.729149 63.237698,73.058296 64.613785,68.986725 
z"/>
<path fill="#50C0BA" opacity="1.000000" stroke="none" 
	d="
M56.867306,82.920807 
	C61.825340,81.794846 64.721115,83.936264 65.641731,88.191566 
	C66.373192,91.572517 64.710991,94.437790 61.314449,95.601349 
	C57.803677,96.804039 54.680984,95.925209 52.996479,92.366524 
	C51.011044,88.172073 52.466007,85.052002 56.867306,82.920807 
z"/>
<path fill="#50C0BA" opacity="1.000000" stroke="none" 
	d="
M38.053772,106.114792 
	C40.339481,100.429153 43.912041,98.587273 48.010685,100.609436 
	C51.429550,102.296196 53.088810,106.865402 50.663727,109.859123 
	C49.224354,111.636009 46.343933,113.134499 44.090313,113.164368 
	C40.256943,113.215187 38.401581,110.244812 38.053772,106.114792 
z"/>
<path fill="#50C0BA" opacity="1.000000" stroke="none" 
	d="
M52.294876,118.156898 
	C56.660210,116.078194 59.827026,117.275635 61.738422,121.039619 
	C63.447071,124.404343 62.509239,127.529953 59.325645,129.638763 
	C56.057217,131.803772 52.754211,131.096085 50.502720,128.243118 
	C47.741680,124.744461 48.344467,121.183640 52.294876,118.156898 
z"/>
<path fill="#4FC0B9" opacity="1.000000" stroke="none" 
	d="
M70.268768,127.581383 
	C68.538658,122.195618 70.089378,118.563698 74.332825,117.277382 
	C77.620956,116.280624 81.538292,118.416977 82.703270,121.842232 
	C83.872337,125.279526 81.688248,129.957657 77.935623,130.327530 
	C75.548141,130.562836 72.962074,128.783340 70.268768,127.581383 
z"/>
<path fill="#4FC0B9" opacity="1.000000" stroke="none" 
	d="
M62.298874,112.693527 
	C58.961964,110.455696 57.833851,107.410667 59.207432,104.280312 
	C60.002857,102.467552 62.407345,100.230659 64.106125,100.215263 
	C66.519775,100.193359 69.836693,101.428581 71.109360,103.271721 
	C72.244637,104.915878 71.881142,108.504150 70.829742,110.536438 
	C69.242264,113.604904 66.020325,114.351868 62.298874,112.693527 
z"/>
<path fill="#50C0BA" opacity="1.000000" stroke="none" 
	d="
M51.990379,30.837299 
	C56.744854,31.347097 59.126129,33.909706 58.805630,38.168423 
	C58.543446,41.652298 56.239143,43.916664 52.557701,44.145550 
	C48.684616,44.386349 46.226646,42.467426 45.348270,38.705246 
	C44.459965,34.900532 46.630512,32.231316 51.990379,30.837299 
z"/>
<path fill="#50C0BA" opacity="1.000000" stroke="none" 
	d="
M44.779610,60.797569 
	C40.312111,62.610661 37.112606,61.350277 35.454659,57.406269 
	C34.009857,53.969288 35.000862,50.835697 38.440147,48.913006 
	C41.693653,47.094158 44.838596,47.818790 46.851120,50.657291 
	C49.399796,54.252003 48.885929,57.854794 44.779610,60.797569 
z"/>
<path fill="#4EC0B9" opacity="1.000000" stroke="none" 
	d="
M72.898956,44.182747 
	C67.135872,43.072945 64.919258,40.211571 65.966362,35.799091 
	C66.809410,32.246490 70.222862,30.183704 73.960831,30.967951 
	C77.467422,31.703651 80.230148,35.382050 78.845657,38.765743 
	C77.952469,40.948681 75.217392,42.377975 72.898956,44.182747 
z"/>
<path fill="#4FC0B9" opacity="1.000000" stroke="none" 
	d="
M44.449684,92.136757 
	C41.765461,96.401360 38.338955,97.163765 34.540768,94.788872 
	C31.192768,92.695480 30.949114,89.309593 32.559975,86.056274 
	C34.322521,82.496605 37.672871,81.901733 41.043583,83.213058 
	C44.922642,84.722130 45.770367,87.942482 44.449684,92.136757 
z"/>
</svg>